<svg width="52" height="51" viewBox="0 0 52 51" fill="none" xmlns="http://www.w3.org/2000/svg">
<g filter="url(#filter0_b_302_2170)">
<rect x="0.998535" width="50.0029" height="50.0029" rx="12" fill="#616270" fill-opacity="0.08"/>
<g clip-path="url(#clip0_302_2170)">
<path fill-rule="evenodd" clip-rule="evenodd" d="M28.1801 11.1706C27.3616 11.0425 26.5943 11.6022 26.4662 12.4206C26.3381 13.2391 26.8977 14.0064 27.7162 14.1345C32.9758 14.9576 37 19.5111 37 25.0016C37 27.9 35.879 30.5366 34.0468 32.5015C32.0388 30.348 29.1767 29.0014 26 29.0014C22.8232 29.0014 19.9609 30.3481 17.9529 32.5019C17.0247 31.5065 16.2789 30.3385 15.7688 29.051C15.4637 28.2808 14.592 27.9038 13.8218 28.2089C13.0516 28.5141 12.6746 29.3858 12.9797 30.156C15.0314 35.3349 20.0856 39.0017 25.9999 39.0017C33.732 39.0017 40 32.7337 40 25.0016C40 18.0105 34.877 12.2187 28.1801 11.1706ZM24.3276 12.3246C24.5341 13.1268 24.0511 13.9446 23.2489 14.1511C22.7436 14.2811 22.2525 14.4462 21.778 14.6436C21.0132 14.9618 20.1352 14.5997 19.8169 13.8348C19.4987 13.07 19.8608 12.192 20.6257 11.8737C21.2305 11.6221 21.8568 11.4116 22.5011 11.2458C23.3034 11.0393 24.1211 11.5223 24.3276 12.3246ZM18.3704 14.79C18.9474 15.3844 18.9333 16.3341 18.3389 16.9111C17.5965 17.6318 16.9557 18.4559 16.4397 19.3596C16.0289 20.0791 15.1128 20.3293 14.3933 19.9185C13.6739 19.5078 13.4237 18.5916 13.8344 17.8722C14.4912 16.7218 15.3061 15.6741 16.2493 14.7585C16.8437 14.1815 17.7933 14.1956 18.3704 14.79ZM13.8323 21.559C14.6527 21.6746 15.2239 22.4333 15.1083 23.2536C15.037 23.7596 15 24.2774 15 24.8046C15 25.633 14.3284 26.3046 13.5 26.3046C12.6716 26.3046 12 25.633 12 24.8046C12 24.1369 12.0469 23.4792 12.1377 22.8349C12.2533 22.0146 13.012 21.4433 13.8323 21.559ZM26.0002 27.0014C28.7617 27.0014 31.0002 24.7629 31.0002 22.0014C31.0002 19.24 28.7617 17.0014 26.0002 17.0014C23.2388 17.0014 21.0002 19.24 21.0002 22.0014C21.0002 24.7629 23.2388 27.0014 26.0002 27.0014Z" fill="#279EFF"/>
</g>
<rect x="1.49854" y="0.5" width="49.0029" height="49.0029" rx="11.5" stroke="#616270" stroke-opacity="0.16" stroke-linecap="round" stroke-linejoin="round"/>
</g>
<defs>
<filter id="filter0_b_302_2170" x="-9.00146" y="-10" width="70.0029" height="70.0029" filterUnits="userSpaceOnUse" color-interpolation-filters="sRGB">
<feFlood flood-opacity="0" result="BackgroundImageFix"/>
<feGaussianBlur in="BackgroundImageFix" stdDeviation="5"/>
<feComposite in2="SourceAlpha" operator="in" result="effect1_backgroundBlur_302_2170"/>
<feBlend mode="normal" in="SourceGraphic" in2="effect1_backgroundBlur_302_2170" result="shape"/>
</filter>
<clipPath id="clip0_302_2170">
<rect width="28" height="28" fill="white" transform="translate(12 11.0015)"/>
</clipPath>
</defs>
</svg>
